<svg xmlns="http://www.w3.org/2000/svg" version="1.1" xmlns:xlink="http://www.w3.org/1999/xlink" xmlns:svgjs="http://svgjs.com/svgjs" width="512" height="512" x="0" y="0" viewBox="0 0 24 24" style="enable-background:new 0 0 512 512" xml:space="preserve" class=""><g transform="matrix(1.0699999999999998,0,0,1.0699999999999998,-0.8399999999999999,-0.8399999999999999)"><g xmlns="http://www.w3.org/2000/svg" id="Layer_2" data-name="Layer 2"><path d="m12 1a11 11 0 1 0 11 11 11.013 11.013 0 0 0 -11-11zm4.242 13.829a1 1 0 1 1 -1.414 1.414l-2.828-2.829-2.828 2.829a1 1 0 0 1 -1.414-1.414l2.828-2.829-2.828-2.829a1 1 0 1 1 1.414-1.414l2.828 2.829 2.828-2.829a1 1 0 1 1 1.414 1.414l-2.828 2.829z" fill="#fd003a" data-original="#000000" style="" class=""></path></g></g></svg>