<svg xmlns="http://www.w3.org/2000/svg" version="1.1" xmlns:xlink="http://www.w3.org/1999/xlink" xmlns:svgjs="http://svgjs.com/svgjs" width="512" height="512" x="0" y="0" viewBox="0 0 58 58" style="enable-background:new 0 0 512 512" xml:space="preserve" class=""><g><path xmlns="http://www.w3.org/2000/svg" d="m29 0c-16.016 0-29 12.984-29 29s12.984 29 29 29 29-12.984 29-29-12.984-29-29-29zm-24 29c0-13.233 10.767-24 24-24 5.846 0 11.208 2.103 15.375 5.589l-33.786 33.786c-3.486-4.167-5.589-9.53-5.589-15.375zm24 24c-5.59 0-10.736-1.927-14.82-5.144l33.676-33.677c3.217 4.085 5.144 9.231 5.144 14.821 0 13.233-10.767 24-24 24z" fill="#dd352e" data-original="#dd352e" style="" class=""></path></g></svg>