<?xml version="1.0" standalone="no"?>
<!DOCTYPE svg PUBLIC "-//W3C//DTD SVG 20010904//EN"
 "http://www.w3.org/TR/2001/REC-SVG-20010904/DTD/svg10.dtd">
<svg version="1.0" xmlns="http://www.w3.org/2000/svg"
 width="512.000000pt" height="512.000000pt" viewBox="0 0 512.000000 512.000000"
 preserveAspectRatio="xMidYMid meet">

<g transform="translate(0.000000,512.000000) scale(0.100000,-0.100000)"
fill="#000000" stroke="none">
<path d="M2524 4790 c-46 -10 -77 -35 -189 -151 -607 -628 -1029 -1283 -1235
-1915 -190 -585 -180 -1140 29 -1551 61 -120 107 -188 195 -292 325 -381 961
-617 1446 -537 486 79 894 321 1129 670 290 429 336 1023 130 1681 -196 625
-625 1301 -1218 1917 -166 172 -205 197 -287 178z"/>
</g>
</svg>
