<svg id="Grupo_49" data-name="Grupo 49" xmlns="http://www.w3.org/2000/svg" width="11.276" height="11.273" viewBox="0 0 11.276 11.273">
  <path id="Caminho_83" data-name="Caminho 83" d="M22.406,9.056V6.507l.116-.006h.012l.1,0c.22-.009.441-.017.662-.028.743-.039.747-1.2,0-1.159-.22.011-.441.019-.662.028l-.116,0-.061,0-.055,0V3.376a.549.549,0,0,0-.4-.528h0a.573.573,0,0,0-.069-.014c-.18-.052-.641-.293-.7-1.406V.654A.654.654,0,0,0,20.581,0H19.9V1.194a1.378,1.378,0,0,1-1.378,1.378h-.689a1.378,1.378,0,0,1-1.378-1.378V0h-.677a.654.654,0,0,0-.654.654v.769c-.055,1.115-.517,1.357-.7,1.408a.564.564,0,0,0-.069.014h0a.55.55,0,0,0-.4.528V5.343l-.054,0-.061,0-.116,0c-.194-.008-.389-.015-.584-.025-.747-.038-.743,1.12,0,1.159.194.01.389.017.584.025l.1,0h.011l.116,0v4.221a.551.551,0,0,0,.551.551h7.348a.551.551,0,0,0,.551-.551v-.508" transform="translate(-12.582)" fill="#1c70ec"/>
  <path id="Caminho_84" data-name="Caminho 84" d="M242.677,206.96" transform="translate(-232.621 -197.915)" fill="#1c70ec"/>
  <path id="Caminho_85" data-name="Caminho 85" d="M241.182,207.469c.177-.007.428-.014.606-.023.743-.038.747-1.2,0-1.159-.2.01-.4.018-.606.026" transform="translate(-231.192 -197.271)" fill="#1c70ec"/>
  <path id="Caminho_86" data-name="Caminho 86" d="M16.954,206.309c-.176-.007-.352-.014-.527-.023-.747-.039-.743,1.12,0,1.159.152.008.376.014.527.02" transform="translate(-15.724 -197.27)" fill="#1c70ec"/>
</svg>
