<?xml version="1.0" encoding="UTF-8"?>
<svg xmlns="http://www.w3.org/2000/svg" xmlns:xlink="http://www.w3.org/1999/xlink" width="299pt" height="121pt" viewBox="0 0 299 121" version="1.1">
<defs>
<clipPath id="clip1">
  <path d="M 3 0 L 299 0 L 299 114 L 3 114 Z M 3 0 "/>
</clipPath>
<clipPath id="clip2">
  <path d="M 235.265625 0.253906 C 235.265625 4.210938 232.058594 7.417969 228.101562 7.417969 C 224.148438 7.417969 220.941406 4.210938 220.941406 0.253906 L 31.34375 0.253906 C 31.34375 15.496094 18.988281 27.851562 3.746094 27.851562 L 3.746094 86.265625 C 18.988281 86.265625 31.34375 98.621094 31.34375 113.863281 L 220.941406 113.863281 C 220.941406 109.90625 224.148438 106.699219 228.101562 106.699219 C 232.058594 106.699219 235.265625 109.90625 235.265625 113.863281 L 271.402344 113.863281 C 271.402344 98.621094 283.757812 86.265625 299 86.265625 L 299 27.851562 C 283.757812 27.851562 271.402344 15.496094 271.402344 0.253906 Z M 235.265625 0.253906 "/>
</clipPath>
<linearGradient id="linear0" gradientUnits="userSpaceOnUse" x1="0" y1="120.62" x2="1" y2="120.62" gradientTransform="matrix(295.264373,0,0,-295.264373,3.625756,35672.958176)">
<stop offset="0" style="stop-color:rgb(100%,100%,100%);stop-opacity:1;"/>
<stop offset="0.54" style="stop-color:rgb(100%,100%,100%);stop-opacity:1;"/>
<stop offset="0.59" style="stop-color:rgb(99.607843%,99.607843%,99.607843%);stop-opacity:1;"/>
<stop offset="1" style="stop-color:rgb(98.039216%,98.039216%,98.431373%);stop-opacity:1;"/>
</linearGradient>
<clipPath id="clip3">
  <path d="M 227 4 L 230 4 L 230 110 L 227 110 Z M 227 4 "/>
</clipPath>
<clipPath id="clip4">
  <path d="M 235.265625 0.253906 C 235.265625 4.210938 232.058594 7.417969 228.101562 7.417969 C 224.148438 7.417969 220.941406 4.210938 220.941406 0.253906 L 31.34375 0.253906 C 31.34375 15.496094 18.988281 27.851562 3.746094 27.851562 L 3.746094 86.265625 C 18.988281 86.265625 31.34375 98.621094 31.34375 113.863281 L 220.941406 113.863281 C 220.941406 109.90625 224.148438 106.699219 228.101562 106.699219 C 232.058594 106.699219 235.265625 109.90625 235.265625 113.863281 L 271.402344 113.863281 C 271.402344 98.621094 283.757812 86.265625 299 86.265625 L 299 27.851562 C 283.757812 27.851562 271.402344 15.496094 271.402344 0.253906 Z M 235.265625 0.253906 "/>
</clipPath>
</defs>
<g id="surface1">
<path style=" stroke:none;fill-rule:nonzero;fill:rgb(58.823529%,11.372549%,17.254902%);fill-opacity:1;" d="M 271.402344 0.824219 C 258.707031 0.824219 241.558594 0.976562 233.21875 1.074219 C 232.808594 4.640625 231.777344 7.417969 228.101562 7.417969 C 225.121094 7.414062 222.453125 5.570312 221.402344 2.78125 C 193.113281 2.914062 80.464844 3.53125 25.480469 5.449219 C 26.550781 20.230469 13.882812 30.960938 0 31.378906 C 4.125 55.121094 3.386719 66.96875 1.539062 90.917969 C 16.640625 91.679688 28.566406 105.613281 27.898438 120.746094 C 69.027344 118.417969 110.121094 113.511719 151.351562 113.464844 C 178.410156 113.464844 201.714844 114.75 221.332031 116.199219 C 221.074219 115.449219 220.941406 114.65625 220.941406 113.863281 C 220.941406 109.867188 222.148438 106.699219 226.105469 106.699219 C 228.617188 106.699219 230.945312 108.015625 232.238281 110.164062 C 233.535156 112.316406 233.609375 114.988281 232.4375 117.207031 C 244.605469 118.207031 257.078125 119.085938 265.859375 119.535156 C 266.917969 104.804688 279.671875 89.710938 295.464844 90.148438 C 298.558594 66 299 52.734375 299 28.421875 C 283.726562 29.050781 272.03125 15.136719 271.402344 0.824219 "/>
<g clip-path="url(#clip1)" clip-rule="nonzero">
<g clip-path="url(#clip2)" clip-rule="nonzero">
<path style=" stroke:none;fill-rule:nonzero;fill:url(#linear0);" d="M 3.746094 0.253906 L 299.011719 0.253906 L 299.011719 113.863281 L 3.746094 113.863281 Z M 3.746094 0.253906 "/>
</g>
</g>
<g clip-path="url(#clip3)" clip-rule="nonzero">
<g clip-path="url(#clip4)" clip-rule="nonzero">
<path style=" stroke:none;fill-rule:nonzero;fill:rgb(91.764706%,11.372549%,17.254902%);fill-opacity:1;" d="M 229.023438 109.226562 L 227.183594 109.226562 L 227.183594 103.675781 L 229.023438 103.675781 Z M 229.023438 101.976562 L 227.183594 101.976562 L 227.183594 97.210938 L 229.023438 97.210938 Z M 229.023438 92.4375 L 227.183594 92.4375 L 227.183594 87.664062 L 229.023438 87.664062 Z M 229.023438 82.890625 L 227.183594 82.890625 L 227.183594 78.164062 L 229.023438 78.164062 Z M 229.023438 73.339844 L 227.183594 73.339844 L 227.183594 68.574219 L 229.023438 68.574219 Z M 229.023438 63.800781 L 227.183594 63.800781 L 227.183594 59.027344 L 229.023438 59.027344 Z M 229.023438 54.253906 L 227.183594 54.253906 L 227.183594 49.476562 L 229.023438 49.476562 Z M 229.023438 44.703125 L 227.183594 44.703125 L 227.183594 39.929688 L 229.023438 39.929688 Z M 229.023438 35.15625 L 227.183594 35.15625 L 227.183594 30.378906 L 229.023438 30.378906 Z M 229.023438 25.617188 L 227.183594 25.617188 L 227.183594 20.839844 L 229.023438 20.839844 Z M 229.023438 16.066406 L 227.183594 16.066406 L 227.183594 11.292969 L 229.023438 11.292969 Z M 229.023438 9.574219 L 227.183594 9.574219 L 227.183594 4.800781 L 229.023438 4.800781 Z M 229.023438 9.574219 "/>
</g>
</g>
<path style=" stroke:none;fill-rule:nonzero;fill:rgb(91.764706%,11.372549%,17.254902%);fill-opacity:1;" d="M 11.65625 62.351562 L 15.210938 62.351562 L 17.210938 52.355469 L 13.644531 52.355469 Z M 11.65625 62.351562 "/>
<path style=" stroke:none;fill-rule:nonzero;fill:rgb(91.764706%,11.372549%,17.254902%);fill-opacity:1;" d="M 13.964844 50.785156 L 17.519531 50.785156 L 18.097656 47.898438 L 14.53125 47.898438 Z M 13.964844 50.785156 "/>
<path style=" stroke:none;fill-rule:nonzero;fill:rgb(91.764706%,11.372549%,17.254902%);fill-opacity:1;" d="M 16.621094 65.179688 L 20.1875 65.179688 L 22.34375 54.363281 L 24.972656 54.363281 L 25.378906 52.363281 L 22.734375 52.363281 L 22.824219 51.894531 C 22.992188 51.046875 23.261719 50.058594 24.601562 50.058594 C 25.386719 50.035156 26.167969 50.167969 26.898438 50.457031 L 27.308594 48.359375 C 26.484375 48.058594 25.617188 47.90625 24.742188 47.910156 C 22.054688 47.847656 19.710938 49.726562 19.1875 52.363281 L 17.980469 52.363281 L 17.597656 54.363281 L 18.816406 54.363281 Z M 16.621094 65.179688 "/>
<path style=" stroke:none;fill-rule:nonzero;fill:rgb(91.764706%,11.372549%,17.254902%);fill-opacity:1;" d="M 27.96875 62.503906 C 31.828125 62.351562 34.925781 59.261719 35.089844 55.402344 C 35.089844 53.074219 32.929688 52.054688 30.882812 52.054688 C 26.992188 52.160156 23.867188 55.296875 23.773438 59.1875 C 23.773438 61.515625 25.949219 62.53125 27.976562 62.53125 "/>
<path style=" stroke:none;fill-rule:nonzero;fill:rgb(91.764706%,11.372549%,17.254902%);fill-opacity:1;" d="M 39.214844 62.503906 C 43.074219 62.351562 46.171875 59.261719 46.335938 55.402344 C 46.335938 53.074219 44.167969 52.054688 42.121094 52.054688 C 38.210938 52.132812 35.054688 55.277344 34.960938 59.1875 C 34.960938 61.515625 37.136719 62.53125 39.175781 62.53125 "/>
<path style=" stroke:none;fill-rule:nonzero;fill:rgb(91.764706%,11.372549%,17.254902%);fill-opacity:1;" d="M 52.050781 62.351562 L 55.585938 62.351562 L 58.429688 48.121094 L 54.875 48.121094 L 54.027344 52.355469 C 53.554688 52.25 53.070312 52.199219 52.589844 52.195312 C 49.09375 52.195312 45.945312 56.699219 45.945312 59.9375 C 45.894531 60.589844 46.105469 61.238281 46.535156 61.734375 C 46.96875 62.230469 47.578125 62.53125 48.234375 62.574219 C 49.835938 62.636719 51.363281 61.886719 52.289062 60.574219 L 52.507812 60.574219 Z M 52.050781 62.351562 "/>
<path style=" stroke:none;fill-rule:nonzero;fill:rgb(91.764706%,11.372549%,17.254902%);fill-opacity:1;" d="M 41.082031 69.882812 C 38.339844 72.203125 34.792969 73.347656 31.214844 73.058594 C 26.839844 72.738281 23.242188 69.496094 22.464844 65.179688 L 22.695312 65.179688 C 23.988281 67.964844 26.636719 69.875 29.683594 70.234375 C 33.082031 70.464844 36.425781 69.308594 38.953125 67.027344 L 36.515625 65.179688 L 43.6875 65.179688 L 42.152344 72.921875 Z M 41.082031 69.882812 "/>
<path style="fill:none;stroke-width:0.92;stroke-linecap:butt;stroke-linejoin:miter;stroke:rgb(91.764706%,11.372549%,17.254902%);stroke-opacity:1;stroke-miterlimit:10;" d="M 78.760055 11.148139 L 258.779127 11.148139 C 263.949234 11.148139 268.141636 15.340541 268.141636 20.510648 L 268.141636 92.289885 C 268.141636 97.459992 263.949234 101.648483 258.779127 101.648483 L 78.760055 101.648483 C 73.589948 101.648483 69.401457 97.459992 69.401457 92.289885 L 69.401457 20.510648 C 69.401457 15.340541 73.589948 11.148139 78.760055 11.148139 Z M 78.760055 11.148139 " transform="matrix(0.998831,0,0,0.998831,0,0.25552)"/>
</g>
</svg>
