<svg preserveAspectRatio="none">
<g id="surface1">
<path style=" stroke:none;fill-rule:nonzero;fill:rgb(61.960784%,90.980392%,33.333333%);fill-opacity:1;" d="M 9 2 L 29 2 L 29 0 L 9 0 Z M 36 9 L 36 29 L 38 29 L 38 9 Z M 29 36 L 9 36 L 9 38 L 29 38 Z M 2 29 L 2 9 L 0 9 L 0 29 Z M 9 36 C 5.132812 36 2 32.867188 2 29 L 0 29 C 0 33.96875 4.03125 38 9 38 Z M 36 29 C 36 32.867188 32.867188 36 29 36 L 29 38 C 33.96875 38 38 33.96875 38 29 Z M 29 2 C 32.867188 2 36 5.132812 36 9 L 38 9 C 38 4.03125 33.96875 0 29 0 Z M 9 0 C 4.03125 0 0 4.03125 0 9 L 2 9 C 2 5.132812 5.132812 2 9 2 Z M 9 0 "/>
</g>
</svg>
