<svg xmlns="http://www.w3.org/2000/svg" xmlns:xlink="http://www.w3.org/1999/xlink" width="201.033" height="202.037" viewBox="0 0 201.033 202.037">
  <defs>
    <linearGradient id="linear-gradient" x1="0.532" y1="-0.013" x2="0.535" y2="0.892" gradientUnits="objectBoundingBox">
      <stop offset="0"/>
      <stop offset="1" stop-color="#2b2b2b"/>
    </linearGradient>
  </defs>
  <path id="Subtração_3" data-name="Subtração 3" d="M-7471.278-5478.178h-1.389a101.245,101.245,0,0,1-34.558-6.03,100.516,100.516,0,0,1-29.407-16.686,100.855,100.855,0,0,1-19.633-21.4,15.711,15.711,0,0,0,8.543-14.021,15.891,15.891,0,0,0-15.787-15.958h-.31a15.671,15.671,0,0,0-5.96,1.167c-.632-2.212-1.193-4.47-1.669-6.711.6.047,1.2.072,1.8.072h.3a21.61,21.61,0,0,0,21.628-21.543,21.69,21.69,0,0,0-21.547-21.783h-.424c-.5,0-1.017.019-1.545.055.485-2.192,1.057-4.411,1.7-6.6a15.885,15.885,0,0,0,5.756,1.069h.219a15.831,15.831,0,0,0,15.846-15.781,16,16,0,0,0-8.186-13.991,101.524,101.524,0,0,1,19.536-21.259,100.177,100.177,0,0,1,29.2-16.625,99.93,99.93,0,0,1,34.292-6.017h1.98a98.9,98.9,0,0,1,39.238,8.026,99.884,99.884,0,0,1,17.072,9.4,101.381,101.381,0,0,1,14.853,12.437A102.24,102.24,0,0,1-7387.5-5635.3a102.374,102.374,0,0,1,9.228,17.25,101.842,101.842,0,0,1,7.854,39.407,100.062,100.062,0,0,1-7.914,39.233,100.128,100.128,0,0,1-9.289,17.071,100.871,100.871,0,0,1-12.308,14.849,101.085,101.085,0,0,1-14.921,12.233,100.78,100.78,0,0,1-17.136,9.224A101.113,101.113,0,0,1-7471.278-5478.178Z" transform="translate(7571.448 5680.215)" opacity="0.7" fill="url(#linear-gradient)"/>
</svg>
