<?xml version="1.0" encoding="UTF-8"?>
<svg xmlns="http://www.w3.org/2000/svg" xmlns:xlink="http://www.w3.org/1999/xlink" width="16px" height="16px" viewBox="0 0 12 12" version="1.1">
<defs>
<linearGradient id="linear0" gradientUnits="userSpaceOnUse" x1="2" y1="22" x2="22" y2="2" gradientTransform="matrix(0.5,0,0,0.5,0,0)">
<stop offset="0" style="stop-color:rgb(97.647059%,69.019608%,21.176471%);stop-opacity:1;"/>
<stop offset="1" style="stop-color:rgb(98.823529%,89.411765%,66.27451%);stop-opacity:1;"/>
</linearGradient>
</defs>
<g id="surface1">
<path style=" stroke:none;fill-rule:nonzero;fill:url(#linear0);" d="M 6 10 C 8.199219 10 10 8.199219 10 6 C 10 3.800781 8.199219 2 6 2 C 3.800781 2 2 3.800781 2 6 C 2 8.199219 3.800781 10 6 10 Z M 6 1 C 8.75 1 11 3.25 11 6 C 11 8.75 8.75 11 6 11 C 3.25 11 1 8.75 1 6 C 1 3.25 3.25 1 6 1 Z M 6.25 6.398438 L 3.851562 7.800781 L 3.5 7.101562 L 5.5 5.949219 L 5.5 3.5 L 6.25 3.5 Z M 6.25 6.398438 "/>
</g>
</svg>
