<?xml version="1.0" encoding="UTF-8"?>
<svg xmlns="http://www.w3.org/2000/svg" xmlns:xlink="http://www.w3.org/1999/xlink" width="231pt" height="150pt" viewBox="0 0 231 150" version="1.1">
<g id="surface1">
<path style=" stroke:none;fill-rule:nonzero;fill:rgb(98.823529%,98.823529%,99.215686%);fill-opacity:1;" d="M 227.792969 75.671875 C 213.765625 20.027344 193.859375 3.804688 180.496094 3.804688 C 167.136719 3.804688 150.4375 22.039062 150.4375 22.039062 L 80.160156 22.039062 C 80.160156 22.039062 63.863281 3.804688 50.503906 3.804688 C 37.140625 3.804688 16.96875 20.027344 3.207031 75.671875 C -10.152344 127.960938 20.039062 146.195312 27.789062 146.195312 C 59.585938 146.195312 63.59375 101.011719 115.566406 101.011719 C 167.539062 101.011719 171.414062 146.195312 203.210938 146.195312 C 210.960938 146.195312 240.753906 127.960938 227.792969 75.671875 M 88.445312 75.671875 L 70.273438 75.671875 L 70.273438 94.308594 L 51.570312 94.308594 L 51.570312 76.074219 L 33.402344 76.074219 L 33.402344 57.4375 L 51.570312 57.4375 L 51.570312 39.066406 L 70.273438 39.066406 L 70.273438 57.4375 L 88.445312 57.4375 Z M 151.640625 75.671875 C 146.476562 76.558594 141.574219 73.074219 140.691406 67.894531 C 139.804688 62.714844 143.273438 57.792969 148.4375 56.90625 C 153.597656 56.015625 158.503906 59.496094 159.386719 64.675781 C 160.277344 69.859375 156.804688 74.785156 151.640625 75.671875 M 170.746094 94.84375 C 165.914062 95.378906 161.441406 92.214844 160.324219 87.46875 C 160.695312 83.179688 163.890625 79.679688 168.113281 78.925781 C 172.335938 78.171875 176.539062 80.355469 178.359375 84.25 C 179.257812 89.421875 175.875 94.363281 170.746094 95.378906 M 170.746094 57.035156 C 165.578125 57.960938 160.644531 54.507812 159.722656 49.324219 C 158.800781 44.140625 162.238281 39.1875 167.40625 38.261719 C 172.679688 37.335938 177.707031 40.878906 178.628906 46.171875 C 179.550781 51.46875 176.019531 56.511719 170.746094 57.4375 M 189.714844 76.074219 C 184.554688 76.960938 179.652344 73.476562 178.765625 68.296875 C 177.882812 63.117188 181.351562 58.195312 186.511719 57.308594 C 191.675781 56.417969 196.578125 59.898438 197.464844 65.078125 C 198.351562 70.261719 194.882812 75.183594 189.714844 76.074219 "/>
</g>
</svg>
