<svg xmlns="http://www.w3.org/2000/svg" viewBox="0 0 299 93">
  <path d="M288.625 90.508c4.316 0 7.832-3.934 7.832-8.77V64.641c-8.91-1.227-15.832-8.848-15.832-17.91 0-9.067 6.922-16.684 15.832-17.915V11.27c0-4.836-3.516-8.766-7.832-8.766H10.375c-4.316 0-7.828 3.93-7.828 8.766v17.484c9.21.945 16.414 8.656 16.414 17.98 0 9.325-7.203 17.02-16.414 17.98V81.73c0 4.836 3.512 8.766 7.828 8.766h278.25m0 2.504H10.375C4.825 93 .312 87.941.312 81.73V62.31h.293c8.891 0 16.118-6.993 16.118-15.555 0-8.566-7.227-15.559-16.118-15.559H.313V11.27C.313 5.059 4.824 0 10.374 0h278.25c5.54 0 10.063 5.059 10.063 11.27v19.89c-8.727.149-15.829 7.137-15.829 15.555s7.102 15.422 15.829 15.555V81.69c0 6.25-4.524 11.309-10.063 11.309Zm0 0" fill="#e6e6e6"/>
</svg>
