<?xml version="1.0" encoding="UTF-8"?>
<svg xmlns="http://www.w3.org/2000/svg" xmlns:xlink="http://www.w3.org/1999/xlink" width="16px" height="16px" viewBox="0 0 12 12" version="1.1">
<g id="surface1">
<path style=" stroke:none;fill-rule:nonzero;fill:rgb(100%,100%,100%);fill-opacity:1;" d="M 9.886719 3.613281 L 9.890625 3.609375 L 8.03125 1.75 L 7.5 2.28125 L 8.554688 3.335938 C 8.085938 3.515625 7.75 3.964844 7.75 4.5 C 7.75 4.664062 7.78125 4.828125 7.84375 4.976562 C 7.90625 5.128906 8 5.269531 8.117188 5.382812 C 8.351562 5.617188 8.667969 5.75 9 5.75 C 9.179688 5.75 9.34375 5.710938 9.5 5.644531 L 9.5 9.25 C 9.5 9.382812 9.449219 9.511719 9.355469 9.605469 C 9.261719 9.699219 9.132812 9.75 9 9.75 C 8.867188 9.75 8.738281 9.699219 8.644531 9.605469 C 8.550781 9.511719 8.5 9.382812 8.5 9.25 L 8.5 7 C 8.5 6.734375 8.394531 6.480469 8.207031 6.292969 C 8.019531 6.105469 7.765625 6 7.5 6 L 7 6 L 7 2.5 C 7 2.234375 6.894531 1.980469 6.707031 1.792969 C 6.519531 1.605469 6.265625 1.5 6 1.5 L 3 1.5 C 2.734375 1.5 2.480469 1.605469 2.292969 1.792969 C 2.105469 1.980469 2 2.234375 2 2.5 L 2 10.5 L 7 10.5 L 7 6.75 L 7.75 6.75 L 7.75 9.25 C 7.75 9.582031 7.882812 9.898438 8.117188 10.132812 C 8.351562 10.367188 8.667969 10.5 9 10.5 C 9.164062 10.5 9.328125 10.46875 9.476562 10.40625 C 9.628906 10.34375 9.769531 10.25 9.882812 10.132812 C 10 10.019531 10.09375 9.878906 10.15625 9.726562 C 10.21875 9.578125 10.25 9.414062 10.25 9.25 L 10.25 4.5 C 10.25 4.15625 10.109375 3.839844 9.886719 3.613281 Z M 6 6.75 L 6 9.5 L 3 9.5 L 3 6 L 6 6 Z M 6 5 L 3 5 L 3 2.5 L 6 2.5 Z M 9 5 C 8.867188 5 8.738281 4.949219 8.644531 4.855469 C 8.550781 4.761719 8.5 4.632812 8.5 4.5 C 8.5 4.367188 8.550781 4.238281 8.644531 4.144531 C 8.738281 4.050781 8.867188 4 9 4 C 9.132812 4 9.261719 4.050781 9.355469 4.144531 C 9.449219 4.238281 9.5 4.367188 9.5 4.5 C 9.5 4.632812 9.449219 4.761719 9.355469 4.855469 C 9.261719 4.949219 9.132812 5 9 5 Z M 9 5 "/>
</g>
</svg>
