<svg xmlns="http://www.w3.org/2000/svg" viewBox="0 0 42.759 23.028">
  <path id="Caminho_1" data-name="Caminho 1" d="M156.648,167.871l-1.822,9.139h3.255l1.822-9.139Zm4.066-4.068h-3.257l-.521,2.633h3.253Zm6.633,4.068h-2.4l.082-.422c.153-.779.4-1.685,1.629-1.685a5.21,5.21,0,0,1,2.1.37l.37-1.925a6.948,6.948,0,0,0-2.345-.406,5.059,5.059,0,0,0-5.077,4.068h-1.13l-.353,1.822h1.114l-1.973,9.89h3.255l1.975-9.89h2.375Zm-1.515,6.29c0,2.124,1.992,3.053,3.847,3.053a6.78,6.78,0,0,0,6.51-6.493c0-2.124-1.971-3.053-3.845-3.053A6.684,6.684,0,0,0,165.831,174.16Zm16.777-6.493a6.685,6.685,0,0,0-6.512,6.493c0,2.124,1.994,3.053,3.849,3.053a6.78,6.78,0,0,0,6.51-6.493C186.456,168.6,184.481,167.667,182.609,167.667Zm11.719-3.864-.775,3.864a6.573,6.573,0,0,0-1.315-.153c-3.189,0-6.088,4.131-6.088,7.083a2.233,2.233,0,0,0,2.091,2.412,4.314,4.314,0,0,0,3.7-1.807h.2l-.4,1.6h3.236l2.6-13Zm-14.569,17.48a11.452,11.452,0,0,1-8.479,2.941,8.093,8.093,0,0,1-6.366-4.622h-.206a8.777,8.777,0,0,0,7.992,7.2,12.418,12.418,0,0,0,9.021-2.906l.975,2.773,1.411-7.069-6.555-.019Z" transform="translate(-154.826 -163.803)" fill="#fff"/>
</svg>
