<?xml version="1.0" encoding="UTF-8"?>
<svg xmlns="http://www.w3.org/2000/svg" xmlns:xlink="http://www.w3.org/1999/xlink" width="16px" height="16px" viewBox="0 0 12 12" version="1.1">
<g id="surface1">
<path style=" stroke:none;fill-rule:nonzero;fill:#9EE855;fill-opacity:1;" d="M 6 8.5 C 5.734375 8.5 5.480469 8.394531 5.292969 8.207031 C 5.105469 8.019531 5 7.765625 5 7.5 C 5 6.945312 5.445312 6.5 6 6.5 C 6.265625 6.5 6.519531 6.605469 6.707031 6.792969 C 6.894531 6.980469 7 7.234375 7 7.5 C 7 7.765625 6.894531 8.019531 6.707031 8.207031 C 6.519531 8.394531 6.265625 8.5 6 8.5 Z M 9 10 L 9 5 L 3 5 L 3 10 Z M 9 4 C 9.265625 4 9.519531 4.105469 9.707031 4.292969 C 9.894531 4.480469 10 4.734375 10 5 L 10 10 C 10 10.265625 9.894531 10.519531 9.707031 10.707031 C 9.519531 10.894531 9.265625 11 9 11 L 3 11 C 2.734375 11 2.480469 10.894531 2.292969 10.707031 C 2.105469 10.519531 2 10.265625 2 10 L 2 5 C 2 4.445312 2.445312 4 3 4 L 3.5 4 L 3.5 3 C 3.5 2.335938 3.761719 1.699219 4.230469 1.230469 C 4.699219 0.761719 5.335938 0.5 6 0.5 C 6.328125 0.5 6.652344 0.566406 6.957031 0.691406 C 7.261719 0.816406 7.535156 1 7.769531 1.230469 C 8 1.464844 8.183594 1.738281 8.308594 2.042969 C 8.433594 2.347656 8.5 2.671875 8.5 3 L 8.5 4 Z M 6 1.5 C 5.601562 1.5 5.21875 1.65625 4.9375 1.9375 C 4.65625 2.21875 4.5 2.601562 4.5 3 L 4.5 4 L 7.5 4 L 7.5 3 C 7.5 2.601562 7.34375 2.21875 7.0625 1.9375 C 6.78125 1.65625 6.398438 1.5 6 1.5 Z M 6 1.5 "/>
</g>
</svg>
