<?xml version="1.0" encoding="UTF-8"?>
<svg xmlns="http://www.w3.org/2000/svg" xmlns:xlink="http://www.w3.org/1999/xlink" width="16px" height="16px" viewBox="0 0 12 12" version="1.1">
<defs>
<linearGradient id="linear0" gradientUnits="userSpaceOnUse" x1="4" y1="23" x2="24.2468" y2="7.57389" gradientTransform="matrix(0.5,0,0,0.5,0,0)">
<stop offset="0" style="stop-color:rgb(97.647059%,69.019608%,21.176471%);stop-opacity:1;"/>
<stop offset="1" style="stop-color:rgb(98.823529%,89.411765%,66.27451%);stop-opacity:1;"/>
</linearGradient>
</defs>
<g id="surface1">
<path style=" stroke:none;fill-rule:nonzero;fill:url(#linear0);" d="M 6 2 C 7.101562 2 8 2.898438 8 4 C 8 5.050781 6.949219 6.75 6 7.949219 C 5.050781 6.699219 4 5.050781 4 4 C 4 2.898438 4.898438 2 6 2 Z M 6 1 C 4.351562 1 3 2.351562 3 4 C 3 6.25 6 9.5 6 9.5 C 6 9.5 9 6.199219 9 4 C 9 2.351562 7.648438 1 6 1 Z M 6 3 C 5.449219 3 5 3.449219 5 4 C 5 4.550781 5.449219 5 6 5 C 6.550781 5 7 4.550781 7 4 C 7 3.449219 6.550781 3 6 3 Z M 10 9.5 C 10 10.601562 8.199219 11.5 6 11.5 C 3.800781 11.5 2 10.601562 2 9.5 C 2 8.851562 2.601562 8.300781 3.550781 7.898438 L 3.851562 8.351562 C 3.351562 8.601562 3 8.898438 3 9.25 C 3 9.949219 4.351562 10.5 6 10.5 C 7.648438 10.5 9 9.949219 9 9.25 C 9 8.898438 8.648438 8.601562 8.101562 8.351562 L 8.398438 7.898438 C 9.398438 8.300781 10 8.851562 10 9.5 Z M 10 9.5 "/>
</g>
</svg>
