<?xml version="1.0" encoding="UTF-8"?>
<svg xmlns="http://www.w3.org/2000/svg" xmlns:xlink="http://www.w3.org/1999/xlink" width="16px" height="16px" viewBox="0 0 12 12" version="1.1">
<defs>
<linearGradient id="linear0" gradientUnits="userSpaceOnUse" x1="5" y1="21" x2="23.1472" y2="7.62837" gradientTransform="matrix(0.5,0,0,0.5,0,0)">
<stop offset="0" style="stop-color:rgb(97.647059%,69.019608%,21.176471%);stop-opacity:1;"/>
<stop offset="1" style="stop-color:rgb(98.823529%,89.411765%,66.27451%);stop-opacity:1;"/>
</linearGradient>
</defs>
<g id="surface1">
<path style=" stroke:none;fill-rule:nonzero;fill:url(#linear0);" d="M 8.648438 5.5 C 8.648438 7 7.378906 8.050781 6 8.050781 C 4.621094 8.050781 3.351562 7 3.351562 5.5 L 2.5 5.5 C 2.5 7.203125 3.859375 8.613281 5.5 8.859375 L 5.5 10.5 L 6.5 10.5 L 6.5 8.859375 C 8.140625 8.613281 9.5 7.203125 9.5 5.5 Z M 5.398438 2.449219 C 5.398438 2.121094 5.671875 1.851562 6 1.851562 C 6.328125 1.851562 6.601562 2.121094 6.601562 2.449219 L 6.59375 5.550781 C 6.59375 5.878906 6.328125 6.148438 6 6.148438 C 5.671875 6.148438 5.398438 5.878906 5.398438 5.550781 Z M 6 7 C 6.398438 7 6.78125 6.84375 7.0625 6.5625 C 7.34375 6.28125 7.5 5.898438 7.5 5.5 L 7.5 2.5 C 7.5 2.101562 7.34375 1.71875 7.0625 1.4375 C 6.78125 1.15625 6.398438 1 6 1 C 5.601562 1 5.21875 1.15625 4.9375 1.4375 C 4.65625 1.71875 4.5 2.101562 4.5 2.5 L 4.5 5.5 C 4.5 5.898438 4.65625 6.28125 4.9375 6.5625 C 5.21875 6.84375 5.601562 7 6 7 Z M 6 7 "/>
</g>
</svg>
