<?xml version="1.0" encoding="UTF-8"?>
<svg xmlns="http://www.w3.org/2000/svg" xmlns:xlink="http://www.w3.org/1999/xlink" width="16px" height="16px" viewBox="0 0 12 12" version="1.1">
<g id="surface1">
<path style=" stroke:none;fill-rule:nonzero;fill:#F93636;fill-opacity:1;" d="M 6 2 C 6.53125 2 7.039062 2.210938 7.414062 2.585938 C 7.789062 2.960938 8 3.46875 8 4 C 8 4.53125 7.789062 5.039062 7.414062 5.414062 C 7.039062 5.789062 6.53125 6 6 6 C 5.46875 6 4.960938 5.789062 4.585938 5.414062 C 4.210938 5.039062 4 4.53125 4 4 C 4 3.46875 4.210938 2.960938 4.585938 2.585938 C 4.960938 2.210938 5.46875 2 6 2 Z M 6 3 C 5.734375 3 5.480469 3.105469 5.292969 3.292969 C 5.105469 3.480469 5 3.734375 5 4 C 5 4.265625 5.105469 4.519531 5.292969 4.707031 C 5.480469 4.894531 5.734375 5 6 5 C 6.265625 5 6.519531 4.894531 6.707031 4.707031 C 6.894531 4.519531 7 4.265625 7 4 C 7 3.734375 6.894531 3.480469 6.707031 3.292969 C 6.519531 3.105469 6.265625 3 6 3 Z M 6 6.5 C 7.335938 6.5 10 7.164062 10 8.5 L 10 10 L 2 10 L 2 8.5 C 2 7.164062 4.664062 6.5 6 6.5 Z M 6 7.449219 C 4.515625 7.449219 2.949219 8.179688 2.949219 8.5 L 2.949219 9.050781 L 9.050781 9.050781 L 9.050781 8.5 C 9.050781 8.179688 7.484375 7.449219 6 7.449219 Z M 6 7.449219 "/>
</g>
</svg>
