<?xml version="1.0" encoding="UTF-8"?>
<svg xmlns="http://www.w3.org/2000/svg" xmlns:xlink="http://www.w3.org/1999/xlink" width="16px" height="16px" viewBox="0 0 12 12" version="1.1">
<defs>
<linearGradient id="linear0" gradientUnits="userSpaceOnUse" x1="5" y1="22" x2="24.9294" y2="9.31765" gradientTransform="matrix(0.5,0,0,0.5,0,0)">
<stop offset="0" style="stop-color:rgb(97.647059%,69.019608%,21.176471%);stop-opacity:1;"/>
<stop offset="1" style="stop-color:rgb(98.823529%,89.411765%,66.27451%);stop-opacity:1;"/>
</linearGradient>
</defs>
<g id="surface1">
<path style=" stroke:none;fill-rule:nonzero;fill:url(#linear0);" d="M 3.5 1 L 9 1 C 9.132812 1 9.261719 1.050781 9.355469 1.144531 C 9.449219 1.238281 9.5 1.367188 9.5 1.5 L 9.5 10.5 C 9.5 10.632812 9.449219 10.761719 9.355469 10.855469 C 9.261719 10.949219 9.132812 11 9 11 L 3 11 C 2.867188 11 2.738281 10.949219 2.644531 10.855469 C 2.550781 10.761719 2.5 10.632812 2.5 10.5 L 2.5 0 L 3.5 0 Z M 3.5 4.5 L 8.5 4.5 L 8.5 2 L 3.5 2 Z M 3.5 5.5 L 3.5 10 L 8.5 10 L 8.5 5.5 Z M 3.5 5.5 "/>
</g>
</svg>
