<?xml version="1.0" encoding="UTF-8"?>
<svg xmlns="http://www.w3.org/2000/svg" xmlns:xlink="http://www.w3.org/1999/xlink" width="16px" height="16px" viewBox="0 0 12 12" version="1.1">
<g id="surface1">
<path style=" stroke:none;fill-rule:nonzero;fill:#9EE855;fill-opacity:1;" d="M 1.375 3.5 L 2.015625 2.875 L 6.628906 7.5 L 10 10.859375 L 9.363281 11.5 L 7.863281 10 L 2 10 L 2 8.5 C 2 7.570312 3.304688 6.960938 4.546875 6.679688 Z M 10 8.5 L 10 9.589844 L 9.050781 8.640625 L 9.050781 8.5 C 9.050781 8.371094 8.800781 8.175781 8.398438 8 L 7 6.589844 C 8.355469 6.816406 10 7.453125 10 8.5 Z M 2.949219 8.5 L 2.949219 9.050781 L 6.914062 9.050781 L 5.359375 7.5 C 4.09375 7.648438 2.949219 8.226562 2.949219 8.5 Z M 6 2 C 6.53125 2 7.039062 2.210938 7.414062 2.585938 C 7.789062 2.960938 8 3.46875 8 4 C 8 4.976562 7.300781 5.789062 6.375 5.964844 L 4.035156 3.625 C 4.121094 3.167969 4.367188 2.753906 4.726562 2.460938 C 5.082031 2.164062 5.535156 2 6 2 Z M 6 3 C 5.734375 3 5.480469 3.105469 5.292969 3.292969 C 5.105469 3.480469 5 3.734375 5 4 C 5 4.265625 5.105469 4.519531 5.292969 4.707031 C 5.480469 4.894531 5.734375 5 6 5 C 6.265625 5 6.519531 4.894531 6.707031 4.707031 C 6.894531 4.519531 7 4.265625 7 4 C 7 3.734375 6.894531 3.480469 6.707031 3.292969 C 6.519531 3.105469 6.265625 3 6 3 Z M 6 3 "/>
</g>
</svg>
