<svg xmlns="http://www.w3.org/2000/svg" width="14.748" height="14.748" viewBox="0 0 14.748 14.748">
  <path id="mudanca-de-marcha" d="M14.748,2.16a2.16,2.16,0,1,0-2.592,2.117V6.942H7.806V4.277a2.16,2.16,0,1,0-.864,0V6.942H2.592V4.277a2.16,2.16,0,1,0-.864,0V7.806H6.942v2.665a2.16,2.16,0,1,0,.864,0V7.806h4.35v2.665a2.16,2.16,0,1,0,.864,0V4.277A2.164,2.164,0,0,0,14.748,2.16Zm-8.67,0a1.3,1.3,0,1,1,1.3,1.3A1.3,1.3,0,0,1,6.078,2.16Zm-5.214,0a1.3,1.3,0,1,1,1.3,1.3A1.3,1.3,0,0,1,.864,2.16ZM8.67,12.588a1.3,1.3,0,1,1-1.3-1.3A1.3,1.3,0,0,1,8.67,12.588ZM11.291,2.16a1.3,1.3,0,1,1,1.3,1.3A1.3,1.3,0,0,1,11.291,2.16Zm2.592,10.427a1.3,1.3,0,1,1-1.3-1.3A1.3,1.3,0,0,1,13.884,12.588Zm0,0" fill="#fff"/>
</svg>
