<?xml version="1.0" encoding="UTF-8"?>
<svg xmlns="http://www.w3.org/2000/svg" xmlns:xlink="http://www.w3.org/1999/xlink" width="277pt" height="150pt" viewBox="0 0 277 150" version="1.1">
<g id="surface1">
<path style=" stroke:none;fill-rule:nonzero;fill:rgb(100%,100%,100%);fill-opacity:1;" d="M 88.457031 95.53125 L 202.855469 95.53125 C 215.484375 95.53125 225.746094 85.238281 225.746094 72.574219 C 225.746094 59.90625 215.539062 49.613281 202.855469 49.613281 L 174.863281 49.613281 L 174.863281 41.910156 C 174.863281 34.996094 169.441406 29.769531 162.652344 29.769531 L 151.390625 29.769531 L 151.390625 17.949219 C 151.390625 14.308594 151.972656 13.988281 157.128906 13.988281 C 160.179688 13.988281 162.863281 11.402344 162.863281 8.238281 C 162.863281 5.175781 160.441406 2.644531 157.445312 2.484375 L 145.710938 2.484375 C 141.761719 2.484375 139.972656 5.808594 139.972656 8.238281 L 139.972656 29.769531 L 128.1875 29.769531 C 120.242188 29.769531 116.082031 35.945312 116.082031 41.910156 L 116.082031 49.613281 L 88.507812 49.613281 C 77.828125 49.613281 68.933594 57.003906 66.410156 66.871094 L 62.726562 66.871094 L 62.726562 61.121094 C 62.726562 57.953125 60.144531 55.367188 56.988281 55.367188 C 53.832031 55.367188 51.253906 57.953125 51.253906 61.121094 L 51.253906 84.078125 C 51.253906 87.246094 53.832031 89.832031 56.988281 89.832031 C 60.144531 89.832031 62.726562 87.246094 62.726562 84.078125 L 62.726562 78.324219 L 66.460938 78.324219 C 68.988281 88.246094 77.828125 95.53125 88.457031 95.53125 Z M 88.457031 95.53125 "/>
<path style=" stroke:none;fill-rule:nonzero;fill:rgb(100%,100%,100%);fill-opacity:1;" d="M 83.722656 118.222656 C 80.039062 118.222656 77.195312 119.808594 75.25 122.921875 L 75.25 107.300781 L 67.09375 107.300781 L 67.09375 147.039062 L 75.25 147.039062 L 75.25 142.605469 C 77.144531 145.773438 79.984375 147.410156 83.773438 147.410156 C 87.457031 147.410156 90.402344 145.984375 92.667969 143.082031 C 94.929688 140.179688 95.980469 136.75 95.980469 132.738281 C 95.980469 128.25 94.824219 124.714844 92.507812 122.128906 C 90.195312 119.542969 87.246094 118.222656 83.722656 118.222656 Z M 85.878906 138.4375 C 84.667969 139.863281 83.246094 140.546875 81.511719 140.546875 C 79.667969 140.546875 78.144531 139.808594 76.984375 138.386719 C 75.828125 136.960938 75.25 134.953125 75.25 132.527344 C 75.25 130.152344 75.878906 128.304688 77.144531 127.039062 C 78.40625 125.71875 79.878906 125.085938 81.617188 125.085938 C 83.351562 125.085938 84.773438 125.769531 85.929688 127.144531 C 87.140625 128.515625 87.71875 130.46875 87.71875 132.949219 C 87.667969 135.164062 87.089844 137.011719 85.878906 138.4375 Z M 85.878906 138.4375 "/>
<path style=" stroke:none;fill-rule:nonzero;fill:rgb(100%,100%,100%);fill-opacity:1;" d="M 52.253906 118.539062 L 52.253906 133.582031 C 52.253906 138.332031 50.464844 140.707031 46.9375 140.707031 C 44.042969 140.707031 42.570312 139.019531 42.570312 135.691406 L 42.570312 118.488281 L 34.414062 118.488281 L 34.414062 137.539062 C 34.414062 140.761719 35.203125 143.136719 36.835938 144.769531 C 38.464844 146.40625 40.730469 147.199219 43.625 147.199219 C 47.886719 147.199219 50.78125 145.617188 52.253906 142.394531 L 52.253906 146.933594 L 60.410156 146.933594 L 60.410156 118.433594 L 52.253906 118.433594 Z M 52.253906 118.539062 "/>
<path style=" stroke:none;fill-rule:nonzero;fill:rgb(100%,100%,100%);fill-opacity:1;" d="M 27.257812 129.519531 C 26.679688 128.726562 25.890625 128.039062 24.890625 127.355469 C 23.890625 126.667969 22.996094 126.140625 22.257812 125.71875 C 21.46875 125.347656 20.523438 124.875 19.363281 124.347656 C 17.523438 123.5 16.101562 122.761719 15.15625 122.023438 C 14.207031 121.285156 13.734375 120.441406 13.734375 119.542969 C 13.734375 118.59375 14.101562 117.855469 14.890625 117.222656 C 15.679688 116.640625 16.785156 116.324219 18.207031 116.324219 C 21.46875 116.324219 24.574219 117.222656 27.625 118.964844 L 27.625 110.886719 C 24.890625 109.621094 21.628906 108.988281 17.890625 108.988281 C 13.679688 108.988281 10.367188 109.992188 8 111.996094 C 5.628906 114.003906 4.421875 116.640625 4.421875 119.914062 C 4.421875 122.65625 5.15625 124.820312 6.628906 126.511719 C 8.105469 128.144531 10.050781 129.519531 12.472656 130.679688 C 12.945312 130.835938 13.523438 131.101562 14.261719 131.472656 C 14.996094 131.789062 15.523438 132.050781 15.945312 132.261719 C 16.3125 132.421875 16.785156 132.683594 17.3125 132.949219 C 17.839844 133.210938 18.257812 133.476562 18.523438 133.6875 C 18.785156 133.898438 19.101562 134.164062 19.363281 134.425781 C 19.679688 134.742188 19.890625 135.058594 19.996094 135.375 C 20.101562 135.691406 20.152344 136.0625 20.152344 136.433594 C 20.152344 137.539062 19.734375 138.492188 18.890625 139.175781 C 18.050781 139.863281 16.945312 140.230469 15.628906 140.230469 C 11.789062 140.230469 8.15625 139.019531 4.789062 136.539062 L 4.789062 145.246094 C 7.578125 146.828125 11.207031 147.621094 15.628906 147.621094 C 19.785156 147.621094 23.101562 146.566406 25.574219 144.453125 C 28.101562 142.34375 29.308594 139.597656 29.308594 136.167969 C 29.308594 134.847656 29.101562 133.636719 28.679688 132.527344 C 28.308594 131.207031 27.835938 130.257812 27.257812 129.519531 Z M 27.257812 129.519531 "/>
<path style=" stroke:none;fill-rule:nonzero;fill:rgb(100%,100%,100%);fill-opacity:1;" d="M 133.765625 118.277344 C 131.765625 118.277344 129.976562 118.75 128.5 119.703125 C 127.027344 120.652344 125.921875 121.972656 125.292969 123.660156 C 123.976562 120.070312 121.34375 118.277344 117.347656 118.277344 C 113.558594 118.277344 110.875 119.859375 109.347656 122.972656 L 109.347656 118.539062 L 101.191406 118.539062 L 101.191406 147.039062 L 109.347656 147.039062 L 109.347656 132 C 109.347656 129.359375 109.820312 127.511719 110.820312 126.457031 C 111.820312 125.453125 112.925781 124.925781 114.1875 124.925781 C 115.398438 124.925781 116.292969 125.402344 116.925781 126.351562 C 117.554688 127.300781 117.871094 128.570312 117.871094 130.152344 L 117.871094 147.039062 L 126.027344 147.039062 L 126.027344 132 C 126.027344 129.359375 126.503906 127.511719 127.503906 126.457031 C 128.5 125.453125 129.605469 124.925781 130.871094 124.925781 C 132.082031 124.925781 132.976562 125.402344 133.605469 126.351562 C 134.238281 127.300781 134.554688 128.570312 134.554688 130.152344 L 134.554688 147.09375 L 142.710938 147.09375 L 142.710938 128.832031 C 142.710938 125.347656 141.921875 122.761719 140.289062 120.96875 C 138.761719 119.175781 136.554688 118.277344 133.765625 118.277344 Z M 133.765625 118.277344 "/>
<path style=" stroke:none;fill-rule:nonzero;fill:rgb(100%,100%,100%);fill-opacity:1;" d="M 159.496094 118.066406 C 155.285156 118.066406 152.023438 118.699219 149.8125 119.964844 L 149.8125 127.300781 C 152.445312 125.558594 155.285156 124.714844 158.339844 124.664062 C 161.496094 124.664062 163.125 125.875 163.125 128.25 L 163.125 130.203125 L 159.546875 130.203125 C 155.65625 130.203125 152.65625 130.996094 150.65625 132.472656 C 148.65625 134.003906 147.65625 136.117188 147.65625 138.859375 C 147.65625 141.234375 148.445312 143.1875 149.972656 144.769531 C 151.496094 146.355469 153.65625 147.144531 156.445312 147.144531 C 159.96875 147.144531 162.285156 145.933594 163.496094 143.503906 L 163.496094 146.988281 L 171.492188 146.988281 L 171.492188 128.726562 C 171.492188 125.03125 170.492188 122.339844 168.496094 120.597656 C 166.546875 118.910156 163.546875 118.066406 159.496094 118.066406 Z M 163.125 137.433594 C 163.125 138.648438 162.8125 139.652344 162.179688 140.335938 C 161.546875 141.023438 160.652344 141.394531 159.496094 141.394531 C 157.285156 141.394531 156.179688 140.441406 156.179688 138.542969 C 156.179688 137.59375 156.550781 136.855469 157.285156 136.222656 C 158.023438 135.640625 159.074219 135.324219 160.496094 135.324219 L 163.125 135.324219 Z M 163.125 137.433594 "/>
<path style=" stroke:none;fill-rule:nonzero;fill:rgb(100%,100%,100%);fill-opacity:1;" d="M 230.535156 118.277344 C 228.484375 118.277344 226.695312 118.75 225.21875 119.648438 C 223.746094 120.546875 222.640625 121.8125 221.957031 123.394531 L 221.957031 118.59375 L 213.800781 118.59375 L 213.800781 147.09375 L 221.957031 147.09375 L 221.957031 132.050781 C 221.957031 129.675781 222.429688 127.933594 223.429688 126.722656 C 224.429688 125.507812 225.640625 124.925781 227.167969 124.925781 C 228.589844 124.925781 229.691406 125.347656 230.484375 126.246094 C 231.273438 127.144531 231.640625 128.410156 231.640625 130.097656 L 231.640625 147.039062 L 239.796875 147.039062 L 239.796875 128.570312 C 239.796875 125.191406 238.953125 122.65625 237.324219 120.914062 C 235.691406 119.121094 233.429688 118.277344 230.535156 118.277344 Z M 230.535156 118.277344 "/>
<path style=" stroke:none;fill-rule:nonzero;fill:rgb(100%,100%,100%);fill-opacity:1;" d="M 268.949219 122.234375 C 266.527344 119.492188 263.109375 118.117188 258.6875 118.117188 C 254.476562 118.117188 251.058594 119.542969 248.53125 122.339844 C 246.007812 125.136719 244.742188 128.78125 244.742188 133.160156 C 244.742188 137.328125 245.953125 140.8125 248.375 143.453125 C 250.792969 146.144531 254.265625 147.460938 258.6875 147.460938 C 263.054688 147.460938 266.476562 146.089844 268.894531 143.292969 C 271.371094 140.496094 272.578125 136.960938 272.578125 132.632812 C 272.578125 128.460938 271.371094 124.980469 268.949219 122.234375 Z M 262.738281 138.859375 C 261.84375 140.390625 260.53125 141.128906 258.742188 141.128906 C 256.898438 141.128906 255.53125 140.335938 254.636719 138.808594 C 253.742188 137.277344 253.269531 135.269531 253.269531 132.84375 C 253.269531 130.414062 253.742188 128.410156 254.636719 126.878906 C 255.53125 125.347656 256.898438 124.558594 258.6875 124.558594 C 262.320312 124.558594 264.160156 127.355469 264.109375 132.894531 C 264.054688 135.375 263.632812 137.328125 262.738281 138.859375 Z M 262.738281 138.859375 "/>
<path style=" stroke:none;fill-rule:nonzero;fill:rgb(100%,100%,100%);fill-opacity:1;" d="M 202.910156 107.300781 C 201.59375 107.300781 200.488281 107.773438 199.542969 108.722656 C 198.59375 109.675781 198.121094 110.78125 198.121094 112.101562 C 198.121094 113.421875 198.59375 114.53125 199.542969 115.480469 C 200.488281 116.429688 201.59375 116.90625 202.910156 116.90625 C 204.222656 116.90625 205.328125 116.429688 206.277344 115.480469 C 207.222656 114.53125 207.699219 113.421875 207.699219 112.101562 C 207.699219 110.78125 207.222656 109.675781 206.277344 108.722656 C 205.328125 107.773438 204.222656 107.300781 202.910156 107.300781 Z M 202.910156 107.300781 "/>
<path style=" stroke:none;fill-rule:nonzero;fill:rgb(100%,100%,100%);fill-opacity:1;" d="M 188.648438 119.859375 C 187.4375 120.863281 186.542969 122.183594 186.070312 123.820312 L 186.070312 118.539062 L 177.914062 118.539062 L 177.859375 147.039062 L 186.015625 147.039062 L 186.015625 132.84375 C 186.015625 130.730469 186.542969 128.992188 187.648438 127.722656 C 188.753906 126.457031 190.175781 125.769531 191.910156 125.769531 C 193.070312 125.769531 194.070312 125.980469 194.964844 126.40625 L 194.964844 118.644531 C 194.4375 118.488281 193.753906 118.433594 192.859375 118.433594 C 191.28125 118.382812 189.859375 118.859375 188.648438 119.859375 Z M 188.648438 119.859375 "/>
<path style=" stroke:none;fill-rule:nonzero;fill:rgb(100%,100%,100%);fill-opacity:1;" d="M 198.855469 118.539062 L 207.011719 118.539062 L 207.011719 147.039062 L 198.855469 147.039062 Z M 198.855469 118.539062 "/>
</g>
</svg>
