<?xml version="1.0" encoding="UTF-8"?>
<svg xmlns="http://www.w3.org/2000/svg" xmlns:xlink="http://www.w3.org/1999/xlink" width="16px" height="16px" viewBox="0 0 12 12" version="1.1">
<g id="surface1">
<path style=" stroke:none;fill-rule:nonzero;fill:#F93636;fill-opacity:1;" d="M 5 6.5 C 5.265625 6.5 5.519531 6.605469 5.707031 6.792969 C 5.894531 6.980469 6 7.234375 6 7.5 C 6 8.054688 5.554688 8.5 5 8.5 C 4.445312 8.5 4 8.054688 4 7.5 C 4 6.945312 4.449219 6.5 5 6.5 Z M 9 0.5 C 7.621094 0.5 6.5 1.621094 6.5 3 L 6.5 4 L 2 4 C 1.449219 4 1 4.449219 1 5 L 1 10 C 1 10.550781 1.449219 11 2 11 L 8 11 C 8.550781 11 9 10.550781 9 10 L 9 5 C 9 4.449219 8.550781 4 8 4 L 7.5 4 L 7.5 3 C 7.5 2.171875 8.171875 1.5 9 1.5 C 9.828125 1.5 10.5 2.171875 10.5 3 L 10.5 4 L 11.5 4 L 11.5 3 C 11.5 1.621094 10.378906 0.5 9 0.5 Z M 8 5 L 8 10 L 2 10 L 2 5 Z M 8 5 "/>
</g>
</svg>
